<svg width="500" height="500" viewBox="0 0 500 500" fill="none" xmlns="http://www.w3.org/2000/svg">
<path opacity="0.7" d="M91.4298 411.5C179.01 455.37 320.99 455.37 408.57 411.5C496.15 367.63 496.14 296.5 408.57 252.63C321 208.76 179.01 208.76 91.4298 252.63C3.84978 296.5 3.85979 367.63 91.4298 411.5Z" fill="#F5F5F5"/>
<path d="M401.86 261.19L366.73 240.91V165.58L401.86 185.87V261.19Z" fill="#E0E0E0"/>
<path d="M401.86 185.87L452.04 156.89V232.22L401.86 261.19V185.87Z" fill="#EBEBEB"/>
<path d="M452.04 156.89L401.86 185.87L366.73 165.58L416.91 136.61L452.04 156.89Z" fill="#F5F5F5"/>
<path d="M406.87 188.76L447.02 165.58L447.94 166.12V194.02L407.8 217.2L406.87 216.66V188.76Z" fill="#E6E6E6"/>
<path d="M423.53 184.94L430.36 181C431.25 180.49 431.96 180.72 431.96 181.52C431.896 182.012 431.718 182.483 431.441 182.894C431.163 183.306 430.793 183.647 430.36 183.89L423.53 187.89C422.65 188.4 421.93 188.16 421.93 187.36C421.988 186.859 422.163 186.379 422.441 185.959C422.719 185.539 423.092 185.189 423.53 184.94Z" fill="#E6E6E6"/>
<path d="M405.95 224.07L446.1 200.89L446.09 228.79L447.02 229.32L406.87 252.5L405.95 251.97V224.07Z" fill="#E0E0E0"/>
<path d="M406.87 224.6L447.02 201.42V229.32L406.87 252.5V224.6Z" fill="#F5F5F5"/>
<path d="M422.61 220.24L429.44 216.3C430.32 215.79 431.04 216.02 431.04 216.82C430.975 217.313 430.796 217.784 430.519 218.197C430.241 218.61 429.872 218.953 429.44 219.2L422.61 223.14C421.72 223.65 421 223.42 421 222.62C421.067 222.126 421.246 221.654 421.526 221.241C421.805 220.828 422.176 220.486 422.61 220.24Z" fill="#E6E6E6"/>
<path d="M406.87 188.76L447.02 165.58V193.49L406.87 216.66V188.76Z" fill="#E0E0E0"/>
<path d="M467.09 179.37L445.12 166.68V191.26L467.09 203.95V179.37Z" fill="#E6E6E6"/>
<path d="M421.93 220.63V185.86L430.54 180.87L431.96 182.97L457.06 168.48V200.35L421.93 220.63Z" fill="#EBEBEB"/>
<path d="M421.93 220.63L424.44 190.21L459.56 169.93L457.06 200.35L421.93 220.63Z" fill="#FAFAFA"/>
<path d="M426.95 202.55L407.79 191.49V216.07L426.94 227.13L426.95 202.55Z" fill="#E6E6E6"/>
<path d="M426.95 200.35L467.09 177.17V205.07L426.94 228.25L426.95 200.35Z" fill="#F5F5F5"/>
<path d="M442.68 196L449.51 192.06C450.39 191.55 451.11 191.78 451.11 192.58C451.045 193.073 450.866 193.544 450.589 193.957C450.311 194.37 449.942 194.713 449.51 194.96L442.68 198.9C441.79 199.41 441.08 199.18 441.08 198.38C441.145 197.887 441.324 197.416 441.601 197.003C441.879 196.59 442.248 196.247 442.68 196Z" fill="#E6E6E6"/>
<path d="M426.95 200.35L425.61 199.58V227.48L426.95 228.25V200.35Z" fill="#E0E0E0"/>
<path d="M425.61 199.58L465.75 176.4L467.09 177.17L426.95 200.35L425.61 199.58Z" fill="#F0F0F0"/>
<path d="M378.63 267.25C378.87 261.48 383.42 249.31 389.71 242.05C396 234.79 405.88 230.22 412.49 232.78C418.63 235.17 417.63 243.32 409.85 248.43C402.07 253.54 390.42 259.9 386.72 269.13L379.28 280.35L378.63 267.25Z" fill="#6486DD"/>
<path opacity="0.1" d="M378.63 267.25C378.87 261.48 383.42 249.31 389.71 242.05C396 234.79 405.88 230.22 412.49 232.78C418.63 235.17 417.63 243.32 409.85 248.43C402.07 253.54 390.42 259.9 386.72 269.13L379.28 280.35L378.63 267.25Z" fill="black"/>
<path d="M410.05 235.6C402.57 237.34 381.05 252.43 379.05 274.02" stroke="white" stroke-width="1.02594" stroke-miterlimit="10" stroke-linecap="round"/>
<path d="M380.53 290.18C380.88 284.18 385.99 279.86 392.72 275.91C400.72 271.23 407.62 269.12 410.05 264.51C412.48 259.9 408.13 254.69 399.88 257.44C392.88 259.77 379.37 271.76 379.28 280.35L380.53 290.18Z" fill="#6486DD"/>
<path d="M404.83 261.1C393.78 263.63 381.43 273.68 379.77 284.21" stroke="white" stroke-miterlimit="10" stroke-linecap="round"/>
<path d="M71.54 199.13V372.92L249.41 270.22V112.23L117.15 188.59L112.58 175.43L71.54 199.13Z" fill="#263238"/>
<path d="M71.54 372.92L80.66 214.92L258.53 112.23L249.41 270.22L71.54 372.92Z" fill="white"/>
<path d="M71.54 372.92L85.22 217.56L263.09 114.86L249.41 270.22L71.54 372.92Z" fill="#37474F"/>
<path d="M119.06 232.89V406.68L296.94 303.98V145.99L164.67 222.35L160.11 209.19L119.06 232.89Z" fill="#6486DD"/>
<g opacity="0.1">
<path d="M119.06 232.89V406.68L296.94 303.98V145.99L164.67 222.35L160.11 209.19L119.06 232.89Z" fill="black"/>
</g>
<path d="M183.66 346C183.111 345.63 182.657 345.136 182.336 344.557C182.014 343.978 181.834 343.332 181.81 342.67V125.84C181.85 125.155 182.052 124.49 182.399 123.898C182.747 123.307 183.231 122.807 183.81 122.44L319.93 43.83C320.498 43.4732 321.153 43.2781 321.823 43.2655C322.494 43.253 323.156 43.4235 323.737 43.7587C324.318 44.094 324.796 44.5813 325.121 45.1683C325.446 45.7552 325.605 46.4196 325.58 47.09V263.9C325.539 264.584 325.336 265.249 324.989 265.84C324.641 266.431 324.158 266.932 323.58 267.3L187.47 345.9C186.888 346.216 186.239 346.39 185.577 346.407C184.915 346.424 184.258 346.285 183.66 346Z" fill="#EBEBEB"/>
<path d="M185.5 130L240.79 93.82L237.11 91.7L183.78 122.49C183.201 122.857 182.717 123.357 182.37 123.948C182.022 124.54 181.82 125.205 181.78 125.89V127.89L185.5 130Z" fill="#EBEBEB"/>
<path d="M203.93 136.34L182.39 123.9C182.034 124.486 181.834 125.154 181.81 125.84V342.64C181.786 343.31 181.944 343.975 182.269 344.562C182.594 345.149 183.072 345.636 183.653 345.971C184.235 346.307 184.896 346.477 185.567 346.464C186.237 346.452 186.892 346.257 187.46 345.9L203.93 336.4V136.34Z" fill="#E0E0E0"/>
<path d="M187.47 345.9L323.61 267.3C324.189 266.932 324.671 266.431 325.019 265.84C325.367 265.249 325.569 264.584 325.61 263.9V47.09C325.61 45.84 324.73 45.33 323.61 45.96L187.46 124.56C186.882 124.931 186.399 125.433 186.052 126.025C185.704 126.618 185.502 127.284 185.46 127.97V344.77C185.5 346 186.38 346.53 187.47 345.9Z" fill="#E6E6E6"/>
<path d="M196.8 178L229.49 159.13C231.66 157.88 233.42 158.77 233.42 161.13C233.324 162.449 232.918 163.727 232.235 164.86C231.552 165.993 230.612 166.949 229.49 167.65L196.8 186.56C194.63 187.81 192.87 186.92 192.87 184.56C192.963 183.235 193.368 181.95 194.051 180.81C194.733 179.67 195.675 178.707 196.8 178Z" fill="#F5F5F5"/>
<path d="M194.44 212.55L198.67 210.11C199.54 209.61 200.24 210.01 200.24 211.01V215.9C200.212 216.445 200.054 216.976 199.782 217.448C199.509 217.921 199.128 218.323 198.67 218.62L194.44 221.06C193.58 221.56 192.87 221.16 192.87 220.15V215.27C192.901 214.725 193.059 214.196 193.332 213.723C193.605 213.251 193.984 212.849 194.44 212.55Z" fill="#FAFAFA"/>
<path d="M205.9 208.07L231.46 193.31C232.54 192.68 233.46 193.13 233.46 194.31C233.409 194.973 233.201 195.614 232.853 196.181C232.505 196.748 232.028 197.224 231.46 197.57L205.9 212.32C204.81 212.95 203.9 212.5 203.9 211.32C203.952 210.658 204.16 210.019 204.508 209.453C204.856 208.888 205.333 208.414 205.9 208.07Z" fill="#F5F5F5"/>
<path d="M194.44 229.58L198.67 227.13C199.54 226.63 200.24 227.04 200.24 228.04V232.93C200.212 233.475 200.054 234.006 199.782 234.478C199.509 234.951 199.128 235.353 198.67 235.65L194.44 238.09C193.58 238.59 192.87 238.18 192.87 237.18V232.3C192.901 231.755 193.059 231.226 193.332 230.753C193.605 230.281 193.984 229.879 194.44 229.58Z" fill="#FAFAFA"/>
<path d="M205.9 225.09L231.46 210.34C232.54 209.71 233.46 210.15 233.46 211.34C233.407 212.002 233.198 212.643 232.851 213.21C232.503 213.776 232.027 214.252 231.46 214.6L205.9 229.35C204.81 229.98 203.9 229.53 203.9 228.35C203.953 227.688 204.162 227.047 204.51 226.48C204.857 225.914 205.334 225.438 205.9 225.09Z" fill="#F5F5F5"/>
<path d="M194.44 246.6L198.67 244.16C199.54 243.66 200.24 244.06 200.24 245.07V250C200.212 250.545 200.054 251.076 199.782 251.548C199.509 252.021 199.128 252.423 198.67 252.72L194.44 255.16C193.58 255.67 192.87 255.26 192.87 254.26V249.37C192.893 248.817 193.048 248.277 193.321 247.796C193.594 247.314 193.977 246.904 194.44 246.6Z" fill="#FAFAFA"/>
<path d="M205.9 242.12L231.46 227.36C232.54 226.73 233.46 227.18 233.46 228.36C233.408 229.024 233.2 229.666 232.852 230.235C232.505 230.803 232.028 231.281 231.46 231.63L205.9 246.37C204.81 247 203.9 246.56 203.9 245.37C203.952 244.708 204.16 244.069 204.508 243.503C204.856 242.938 205.333 242.464 205.9 242.12Z" fill="#F5F5F5"/>
<path d="M194.44 263.67L198.67 261.23C199.54 260.73 200.24 261.14 200.24 262.14V267C200.212 267.545 200.054 268.076 199.782 268.548C199.509 269.021 199.128 269.423 198.67 269.72L194.44 272.16C193.58 272.67 192.87 272.26 192.87 271.26V266.37C192.904 265.829 193.064 265.303 193.336 264.835C193.609 264.366 193.987 263.967 194.44 263.67Z" fill="#FAFAFA"/>
<path d="M205.9 259.19L231.46 244.43C232.54 243.8 233.46 244.25 233.46 245.43C233.408 246.094 233.2 246.736 232.852 247.305C232.505 247.873 232.028 248.351 231.46 248.7L205.9 263.44C204.81 264.07 203.9 263.63 203.9 262.44C203.953 261.779 204.162 261.14 204.51 260.575C204.858 260.01 205.334 259.535 205.9 259.19Z" fill="#F5F5F5"/>
<path d="M194.84 299.27L213 288.77C214.08 288.14 215 288.59 215 289.77C214.949 290.433 214.74 291.074 214.393 291.641C214.045 292.208 213.568 292.684 213 293.03L194.81 303.54C193.72 304.16 192.81 303.72 192.81 302.54C192.865 301.873 193.078 301.229 193.431 300.66C193.784 300.092 194.267 299.615 194.84 299.27Z" fill="#F5F5F5"/>
<path d="M194.84 307.78L231.46 286.64C232.54 286.01 233.46 286.46 233.46 287.64C233.408 288.304 233.2 288.946 232.852 289.515C232.504 290.083 232.028 290.561 231.46 290.91L194.84 312C193.75 312.63 192.84 312.18 192.84 311C192.9 310.344 193.111 309.712 193.458 309.153C193.806 308.594 194.279 308.124 194.84 307.78Z" fill="#F0F0F0"/>
<path d="M194.84 307.78L220.4 293C221.48 292.38 222.4 292.82 222.4 294C222.347 294.662 222.138 295.303 221.791 295.87C221.443 296.436 220.967 296.912 220.4 297.26L194.84 312C193.75 312.63 192.84 312.18 192.84 311C192.9 310.344 193.111 309.712 193.458 309.153C193.806 308.594 194.279 308.124 194.84 307.78Z" fill="#FAFAFA"/>
<path d="M194.84 316.29L213 305.78C214.08 305.16 215 305.6 215 306.78C214.946 307.442 214.737 308.083 214.39 308.649C214.042 309.215 213.566 309.692 213 310.04L194.81 320.54C193.72 321.17 192.81 320.72 192.81 319.54C192.865 318.876 193.078 318.234 193.431 317.669C193.784 317.103 194.267 316.631 194.84 316.29Z" fill="#F5F5F5"/>
<path d="M194.84 282.25L213 271.75C214.08 271.13 215 271.57 215 272.75C214.946 273.412 214.737 274.053 214.39 274.619C214.042 275.185 213.566 275.662 213 276.01L194.81 286.51C193.72 287.14 192.81 286.69 192.81 285.51C192.866 284.845 193.08 284.202 193.433 283.636C193.786 283.069 194.268 282.594 194.84 282.25Z" fill="#F5F5F5"/>
<path d="M194.84 290.77L231.46 269.62C232.54 269 233.46 269.44 233.46 270.62C233.406 271.282 233.197 271.923 232.85 272.489C232.502 273.055 232.026 273.532 231.46 273.88L194.84 295C193.75 295.63 192.84 295.18 192.84 294C192.895 293.342 193.105 292.706 193.452 292.145C193.8 291.583 194.276 291.112 194.84 290.77Z" fill="#F0F0F0"/>
<path d="M194.84 290.77L207.84 283.27C208.93 282.64 209.84 283.09 209.84 284.27C209.789 284.934 209.581 285.577 209.233 286.145C208.885 286.714 208.408 287.192 207.84 287.54L194.84 295.03C193.75 295.66 192.84 295.21 192.84 294.03C192.89 293.367 193.098 292.725 193.446 292.158C193.793 291.591 194.272 291.115 194.84 290.77Z" fill="#FAFAFA"/>
<path d="M194.84 324.8L231.46 303.66C232.54 303.03 233.46 303.48 233.46 304.66C233.409 305.323 233.201 305.964 232.853 306.531C232.505 307.098 232.028 307.574 231.46 307.92L194.84 329.07C193.75 329.69 192.84 329.25 192.84 328.07C192.892 327.406 193.1 326.763 193.448 326.195C193.795 325.626 194.273 325.148 194.84 324.8Z" fill="#F0F0F0"/>
<path d="M194.84 324.8L227.77 305.8C228.86 305.18 229.77 305.62 229.77 306.8C229.715 307.462 229.505 308.102 229.158 308.668C228.81 309.234 228.335 309.711 227.77 310.06L194.84 329.06C193.75 329.68 192.84 329.24 192.84 328.06C192.893 327.397 193.102 326.757 193.45 326.19C193.797 325.624 194.274 325.147 194.84 324.8Z" fill="#FAFAFA"/>
<path d="M323.61 46L240.79 93.77V315.11L323.61 267.3C324.188 266.932 324.671 266.431 325.019 265.84C325.366 265.249 325.569 264.584 325.61 263.9V47.09C325.58 45.84 324.7 45.33 323.61 46Z" fill="#F5F5F5"/>
<path d="M240.79 102.29V119.31L233.42 127.83H240.79V144.85L318.2 100.16V57.59L240.79 102.29Z" fill="#EBEBEB"/>
<path d="M250.92 102.88L282.28 84.77C283.8 83.9 285.03 84.61 285.03 86.36C284.98 87.3154 284.704 88.2453 284.226 89.0741C283.748 89.903 283.082 90.6073 282.28 91.13L250.92 109.23C249.4 110.11 248.17 109.4 248.17 107.65C248.221 106.695 248.497 105.765 248.975 104.936C249.452 104.107 250.119 103.403 250.92 102.88Z" fill="#FAFAFA"/>
<path d="M249.15 116.62L309.85 81.57C310.39 81.26 310.85 81.48 310.85 82.07C310.825 82.4015 310.721 82.7221 310.547 83.0054C310.373 83.2888 310.134 83.5269 309.85 83.7L249.15 118.75C248.61 119.06 248.15 118.84 248.15 118.25C248.176 117.919 248.28 117.598 248.454 117.315C248.628 117.031 248.867 116.793 249.15 116.62Z" fill="#FAFAFA"/>
<path d="M249.15 123L309.85 88C310.39 87.68 310.85 87.91 310.85 88.49C310.824 88.8226 310.719 89.1443 310.546 89.4291C310.372 89.714 310.134 89.9541 309.85 90.13L249.15 125.13C248.61 125.44 248.15 125.22 248.15 124.63C248.178 124.299 248.284 123.979 248.457 123.696C248.631 123.413 248.868 123.175 249.15 123Z" fill="#FAFAFA"/>
<path d="M249.15 129.39L309.85 94.39C310.39 94.08 310.85 94.3 310.85 94.89C310.825 95.2214 310.721 95.5421 310.547 95.8254C310.373 96.1088 310.134 96.3468 309.85 96.52L249.15 131.57C248.61 131.88 248.15 131.66 248.15 131.07C248.168 130.73 248.269 130.399 248.443 130.107C248.617 129.814 248.86 129.568 249.15 129.39Z" fill="#FAFAFA"/>
<path d="M251.43 147.24L255.66 144.8C256.53 144.3 257.24 144.7 257.24 145.71V150.59C257.209 151.136 257.05 151.666 256.775 152.139C256.501 152.611 256.119 153.013 255.66 153.31L251.43 155.75C250.57 156.25 249.86 155.85 249.86 154.85V150C249.885 149.449 250.04 148.911 250.313 148.431C250.586 147.951 250.969 147.543 251.43 147.24Z" fill="white"/>
<path d="M262.89 142.76L288.45 128C289.53 127.37 290.45 127.82 290.45 129C290.398 129.664 290.189 130.306 289.842 130.875C289.494 131.443 289.017 131.921 288.45 132.27L262.89 147C261.8 147.63 260.89 147.19 260.89 146C260.943 145.34 261.152 144.702 261.5 144.139C261.847 143.576 262.324 143.103 262.89 142.76Z" fill="#E0E0E0"/>
<path d="M250.85 162.49L315.23 125.31C315.78 124.99 316.23 125.22 316.23 125.8C316.206 126.132 316.103 126.453 315.929 126.737C315.755 127.02 315.515 127.258 315.23 127.43L250.85 164.62C250.3 164.93 249.85 164.71 249.85 164.12C249.874 163.788 249.978 163.467 250.152 163.183C250.326 162.9 250.565 162.662 250.85 162.49Z" fill="#E0E0E0"/>
<path d="M250.85 168.87L315.23 131.69C315.78 131.38 316.23 131.6 316.23 132.19C316.206 132.522 316.103 132.843 315.929 133.127C315.755 133.41 315.515 133.648 315.23 133.82L250.85 171C250.3 171.31 249.85 171.09 249.85 170.5C249.877 170.169 249.982 169.849 250.156 169.566C250.33 169.283 250.567 169.044 250.85 168.87Z" fill="#E0E0E0"/>
<path d="M250.85 175.26L315.23 138.08C315.78 137.76 316.23 137.98 316.23 138.57C316.206 138.902 316.103 139.223 315.929 139.507C315.755 139.79 315.515 140.028 315.23 140.2L250.85 177.38C250.3 177.7 249.85 177.48 249.85 176.89C249.874 176.558 249.978 176.237 250.152 175.953C250.326 175.67 250.565 175.432 250.85 175.26Z" fill="#E0E0E0"/>
<path d="M250.85 181.66L315.23 144.48C315.78 144.16 316.23 144.39 316.23 144.98C316.203 145.311 316.098 145.631 315.924 145.914C315.751 146.197 315.513 146.436 315.23 146.61L250.85 183.79C250.3 184.1 249.85 183.88 249.85 183.29C249.874 182.958 249.978 182.637 250.152 182.353C250.326 182.07 250.565 181.832 250.85 181.66Z" fill="#E0E0E0"/>
<path d="M251.43 194.06L255.66 191.62C256.53 191.12 257.24 191.53 257.24 192.53V197.41C257.209 197.956 257.05 198.486 256.775 198.959C256.501 199.431 256.119 199.833 255.66 200.13L251.43 202.58C250.57 203.08 249.86 202.67 249.86 201.67V196.79C249.89 196.244 250.047 195.712 250.32 195.238C250.593 194.764 250.973 194.36 251.43 194.06Z" fill="white"/>
<path d="M262.89 189.58L288.45 174.82C289.53 174.2 290.45 174.64 290.45 175.82C290.396 176.482 290.187 177.123 289.84 177.689C289.492 178.255 289.016 178.732 288.45 179.08L262.89 193.84C261.8 194.46 260.89 194.02 260.89 192.84C260.943 192.178 261.152 191.537 261.5 190.97C261.847 190.404 262.324 189.928 262.89 189.58Z" fill="#E0E0E0"/>
<path d="M250.85 209.31L315.23 172.13C315.78 171.82 316.23 172.04 316.23 172.63C316.203 172.961 316.098 173.281 315.924 173.564C315.751 173.847 315.513 174.086 315.23 174.26L250.85 211.44C250.3 211.75 249.85 211.53 249.85 210.94C249.874 210.608 249.978 210.287 250.152 210.003C250.326 209.72 250.565 209.482 250.85 209.31Z" fill="#E0E0E0"/>
<path d="M250.85 215.69L315.23 178.51C315.78 178.2 316.23 178.42 316.23 179.01C316.206 179.342 316.103 179.663 315.929 179.947C315.755 180.23 315.515 180.468 315.23 180.64L250.85 217.82C250.3 218.14 249.85 217.91 249.85 217.33C249.876 216.997 249.98 216.675 250.154 216.39C250.327 216.105 250.566 215.865 250.85 215.69Z" fill="#E0E0E0"/>
<path d="M250.85 222.08L315.23 184.9C315.78 184.58 316.23 184.81 316.23 185.39C316.204 185.723 316.1 186.045 315.926 186.33C315.753 186.615 315.514 186.855 315.23 187.03L250.85 224.21C250.3 224.52 249.85 224.3 249.85 223.71C249.874 223.378 249.978 223.057 250.152 222.773C250.326 222.49 250.565 222.252 250.85 222.08Z" fill="#E0E0E0"/>
<path d="M250.85 228.48L315.23 191.3C315.78 190.99 316.23 191.21 316.23 191.8C316.206 192.132 316.103 192.453 315.929 192.737C315.755 193.02 315.515 193.258 315.23 193.43L250.85 230.61C250.3 230.92 249.85 230.7 249.85 230.11C249.877 229.779 249.982 229.459 250.156 229.176C250.33 228.893 250.567 228.654 250.85 228.48Z" fill="#E0E0E0"/>
<path d="M257.46 237.82L261.68 235.38C262.55 234.87 263.26 235.28 263.26 236.28V241.17C263.229 241.716 263.07 242.246 262.795 242.719C262.521 243.191 262.139 243.593 261.68 243.89L257.46 246.33C256.59 246.83 255.88 246.43 255.88 245.42V240.54C255.912 239.994 256.071 239.464 256.345 238.991C256.62 238.519 257.002 238.117 257.46 237.82Z" fill="white"/>
<path d="M250.85 254.41L268.3 244.33C268.84 244.02 269.3 244.24 269.3 244.83C269.274 245.161 269.17 245.482 268.996 245.765C268.823 246.049 268.584 246.287 268.3 246.46L250.85 256.53C250.3 256.85 249.85 256.62 249.85 256.04C249.874 255.708 249.978 255.387 250.152 255.103C250.326 254.82 250.565 254.582 250.85 254.41Z" fill="#E0E0E0"/>
<path d="M280.93 224.26L285.15 221.82C286.02 221.31 286.73 221.72 286.73 222.72V227.61C286.699 228.156 286.539 228.686 286.265 229.159C285.99 229.631 285.609 230.033 285.15 230.33L280.93 232.77C280.06 233.27 279.35 232.86 279.35 231.86V227C279.378 226.451 279.536 225.916 279.811 225.44C280.085 224.964 280.469 224.559 280.93 224.26Z" fill="white"/>
<path d="M274.32 240.84L291.77 230.77C292.31 230.46 292.77 230.68 292.77 231.27C292.745 231.601 292.64 231.922 292.467 232.205C292.293 232.489 292.054 232.727 291.77 232.9L274.32 243C273.77 243.32 273.32 243.09 273.32 242.51C273.341 242.172 273.443 241.844 273.617 241.553C273.791 241.263 274.032 241.018 274.32 240.84Z" fill="#E0E0E0"/>
<path d="M304.4 210.7L308.62 208.25C309.49 207.75 310.2 208.16 310.2 209.16V214C310.171 214.547 310.012 215.08 309.737 215.554C309.463 216.029 309.08 216.432 308.62 216.73L304.4 219.17C303.53 219.67 302.82 219.26 302.82 218.26V213.38C302.858 212.841 303.02 212.319 303.294 211.854C303.568 211.388 303.947 210.994 304.4 210.7Z" fill="white"/>
<path d="M297.78 227.28L315.23 217.21C315.78 216.9 316.23 217.12 316.23 217.71C316.206 218.042 316.103 218.363 315.929 218.647C315.755 218.93 315.515 219.168 315.23 219.34L297.78 229.41C297.24 229.73 296.78 229.5 296.78 228.91C296.808 228.579 296.913 228.259 297.087 227.976C297.261 227.693 297.498 227.455 297.78 227.28Z" fill="#E0E0E0"/>
<path d="M250.85 258.56L268.3 248.49C268.84 248.18 269.3 248.4 269.3 248.99C269.272 249.321 269.167 249.641 268.993 249.924C268.82 250.207 268.582 250.445 268.3 250.62L250.85 260.69C250.3 261 249.85 260.78 249.85 260.19C249.876 259.859 249.98 259.538 250.154 259.255C250.328 258.971 250.566 258.733 250.85 258.56Z" fill="#E0E0E0"/>
<path d="M274.32 245L291.77 234.93C292.31 234.61 292.77 234.84 292.77 235.42C292.744 235.753 292.639 236.074 292.466 236.359C292.292 236.644 292.054 236.884 291.77 237.06L274.32 247.13C273.77 247.44 273.32 247.22 273.32 246.63C273.344 246.298 273.448 245.977 273.622 245.693C273.796 245.41 274.035 245.172 274.32 245Z" fill="#E0E0E0"/>
<path d="M297.78 231.44L315.23 221.37C315.78 221.05 316.23 221.28 316.23 221.86C316.204 222.193 316.1 222.515 315.927 222.8C315.753 223.085 315.514 223.325 315.23 223.5L297.78 233.57C297.24 233.88 296.78 233.66 296.78 233.07C296.806 232.739 296.91 232.418 297.084 232.135C297.258 231.851 297.496 231.613 297.78 231.44Z" fill="#E0E0E0"/>
<path d="M250.85 262.72L268.3 252.64C268.84 252.33 269.3 252.55 269.3 253.14C269.274 253.471 269.17 253.792 268.996 254.075C268.823 254.359 268.584 254.597 268.3 254.77L250.85 264.85C250.3 265.16 249.85 264.94 249.85 264.35C249.874 264.018 249.978 263.697 250.152 263.413C250.326 263.13 250.565 262.892 250.85 262.72Z" fill="#E0E0E0"/>
<path d="M274.32 249.16L291.77 239.08C292.31 238.77 292.77 238.99 292.77 239.58C292.745 239.911 292.64 240.232 292.467 240.515C292.293 240.799 292.054 241.037 291.77 241.21L274.32 251.29C273.77 251.6 273.32 251.38 273.32 250.79C273.344 250.458 273.448 250.137 273.622 249.853C273.796 249.57 274.035 249.332 274.32 249.16Z" fill="#E0E0E0"/>
<path d="M297.78 235.6L315.23 225.52C315.78 225.21 316.23 225.43 316.23 226.02C316.206 226.352 316.103 226.673 315.929 226.957C315.755 227.24 315.515 227.478 315.23 227.65L297.78 237.72C297.24 238.04 296.78 237.82 296.78 237.23C296.806 236.899 296.91 236.578 297.084 236.295C297.258 236.011 297.496 235.773 297.78 235.6Z" fill="#E0E0E0"/>
<path d="M257.46 272.77L261.68 270.33C262.55 269.83 263.26 270.24 263.26 271.24V276.12C263.229 276.666 263.07 277.196 262.795 277.669C262.521 278.141 262.139 278.543 261.68 278.84L257.46 281.28C256.59 281.79 255.88 281.38 255.88 280.38V275.49C255.912 274.944 256.071 274.414 256.345 273.941C256.62 273.469 257.002 273.067 257.46 272.77Z" fill="white"/>
<path d="M250.85 289.36L268.3 279.29C268.84 278.97 269.3 279.2 269.3 279.78C269.274 280.111 269.17 280.432 268.996 280.715C268.823 280.999 268.584 281.237 268.3 281.41L250.85 291.49C250.3 291.8 249.85 291.58 249.85 290.99C249.874 290.658 249.978 290.337 250.152 290.053C250.326 289.77 250.565 289.532 250.85 289.36Z" fill="#E0E0E0"/>
<path d="M280.93 259.21L285.15 256.77C286.02 256.27 286.73 256.67 286.73 257.68V262.56C286.699 263.106 286.539 263.636 286.265 264.109C285.99 264.581 285.609 264.983 285.15 265.28L280.93 267.72C280.06 268.23 279.35 267.82 279.35 266.82V261.93C279.381 261.384 279.541 260.854 279.815 260.381C280.09 259.909 280.472 259.507 280.93 259.21Z" fill="white"/>
<path d="M274.32 275.8L291.77 265.73C292.31 265.41 292.77 265.63 292.77 266.22C292.745 266.551 292.64 266.872 292.467 267.155C292.293 267.439 292.054 267.677 291.77 267.85L274.32 277.93C273.77 278.24 273.32 278.02 273.32 277.43C273.344 277.098 273.448 276.777 273.622 276.493C273.796 276.21 274.035 275.972 274.32 275.8Z" fill="#E0E0E0"/>
<path d="M304.4 245.65L308.62 243.21C309.49 242.71 310.2 243.11 310.2 244.12V249C310.169 249.546 310.01 250.076 309.735 250.549C309.461 251.021 309.079 251.423 308.62 251.72L304.4 254.16C303.53 254.66 302.82 254.26 302.82 253.26V248.37C302.852 247.824 303.011 247.294 303.285 246.821C303.56 246.349 303.942 245.947 304.4 245.65Z" fill="white"/>
<path d="M297.78 262.24L315.23 252.16C315.78 251.85 316.23 252.07 316.23 252.66C316.206 252.992 316.103 253.313 315.929 253.597C315.755 253.88 315.515 254.118 315.23 254.29L297.78 264.37C297.24 264.68 296.78 264.46 296.78 263.87C296.806 263.539 296.91 263.218 297.084 262.935C297.258 262.651 297.496 262.413 297.78 262.24Z" fill="#E0E0E0"/>
<path d="M250.85 293.52L268.3 283.44C268.84 283.13 269.3 283.35 269.3 283.94C269.274 284.271 269.17 284.592 268.996 284.875C268.823 285.159 268.584 285.397 268.3 285.57L250.85 295.64C250.3 295.96 249.85 295.73 249.85 295.15C249.874 294.818 249.978 294.497 250.152 294.213C250.326 293.93 250.565 293.692 250.85 293.52Z" fill="#E0E0E0"/>
<path d="M274.32 280L291.77 269.93C292.31 269.62 292.77 269.84 292.77 270.43C292.745 270.761 292.64 271.082 292.467 271.365C292.293 271.649 292.054 271.887 291.77 272.06L274.32 282.13C273.77 282.45 273.32 282.22 273.32 281.64C273.346 281.307 273.45 280.985 273.624 280.7C273.798 280.415 274.036 280.175 274.32 280Z" fill="#E0E0E0"/>
<path d="M297.78 266.39L315.23 256.32C315.78 256.01 316.23 256.23 316.23 256.82C316.206 257.152 316.103 257.473 315.929 257.757C315.755 258.04 315.515 258.278 315.23 258.45L297.78 268.52C297.24 268.84 296.78 268.61 296.78 268.03C296.807 267.697 296.911 267.376 297.085 267.091C297.259 266.806 297.497 266.566 297.78 266.39Z" fill="#E0E0E0"/>
<path d="M250.85 297.67L268.3 287.6C268.84 287.29 269.3 287.51 269.3 288.1C269.272 288.431 269.167 288.751 268.993 289.034C268.82 289.317 268.582 289.555 268.3 289.73L250.85 299.8C250.3 300.11 249.85 299.89 249.85 299.3C249.877 298.969 249.982 298.649 250.156 298.366C250.33 298.083 250.567 297.844 250.85 297.67Z" fill="#E0E0E0"/>
<path d="M274.32 284.11L291.77 274C292.31 273.69 292.77 273.91 292.77 274.5C292.742 274.831 292.637 275.151 292.464 275.434C292.29 275.717 292.052 275.955 291.77 276.13L274.32 286.2C273.77 286.51 273.32 286.29 273.32 285.7C273.351 285.375 273.457 285.062 273.631 284.786C273.804 284.509 274.041 284.278 274.32 284.11Z" fill="#E0E0E0"/>
<path d="M297.78 270.55L315.23 260.48C315.78 260.16 316.23 260.39 316.23 260.97C316.204 261.303 316.1 261.625 315.927 261.91C315.753 262.195 315.514 262.435 315.23 262.61L297.78 272.68C297.24 272.99 296.78 272.77 296.78 272.18C296.806 271.849 296.91 271.528 297.084 271.245C297.258 270.961 297.496 270.723 297.78 270.55Z" fill="#E0E0E0"/>
<path d="M211.3 119.37C221.51 113.48 229.78 118.25 229.78 130.04C229.78 141.83 221.51 156.14 211.3 162.04C201.09 167.94 192.83 163.16 192.83 151.38C192.83 139.6 201.1 125.26 211.3 119.37Z" fill="#FAFAFA"/>
<path d="M211.3 128.64C214.61 126.73 217.3 128.28 217.3 132.1C217.187 134.18 216.584 136.204 215.541 138.007C214.499 139.811 213.046 141.343 211.3 142.48C207.99 144.39 205.3 142.84 205.3 139.02C205.413 136.94 206.015 134.916 207.058 133.112C208.101 131.308 209.554 129.776 211.3 128.64Z" fill="#E0E0E0"/>
<path d="M223 149C223 142.72 218.59 140.18 213.15 143.32L209.75 145.32C204.31 148.46 199.9 156.1 199.9 162.38V164.07C203.05 165.07 207 164.54 211.31 162.07C216.04 159.149 220.039 155.185 223 150.48V149Z" fill="#E0E0E0"/>
<path d="M200.37 192.38L225.93 177.62C227.01 176.99 227.93 177.44 227.93 178.62C227.879 179.283 227.67 179.924 227.323 180.491C226.975 181.058 226.498 181.534 225.93 181.88L200.37 196.64C199.28 197.27 198.37 196.82 198.37 195.64C198.42 194.977 198.628 194.335 198.975 193.768C199.323 193.201 199.801 192.725 200.37 192.38Z" fill="#F5F5F5"/>
<path d="M119.07 406.68L151.56 265.96L329.43 163.27L296.94 303.98L119.07 406.68Z" fill="#6486DD"/>
<path opacity="0.1" d="M208.43 355.08V233.13L328.96 163.88L296.94 303.98L208.43 355.08Z" fill="black"/>
<path d="M239.08 372.79L208.43 355.08L265.51 322.37L239.08 372.79Z" fill="#E0E0E0"/>
<path d="M239.08 372.79C238.534 372.418 238.082 371.923 237.763 371.345C237.443 370.766 237.264 370.121 237.24 369.46V152.65C237.283 151.966 237.486 151.302 237.834 150.711C238.181 150.12 238.663 149.62 239.24 149.25L375.35 70.64C375.919 70.2827 376.575 70.0874 377.246 70.0752C377.918 70.0631 378.58 70.2344 379.161 70.5709C379.743 70.9074 380.221 71.3962 380.545 71.9846C380.869 72.5731 381.027 73.2388 381 73.91V290.71C380.959 291.394 380.756 292.059 380.409 292.65C380.061 293.241 379.578 293.742 379 294.11L242.89 372.72C242.305 373.029 241.655 373.196 240.994 373.208C240.332 373.221 239.676 373.077 239.08 372.79Z" fill="#EBEBEB"/>
<path d="M240.92 156.77L296.22 120.59L292.53 118.46L239.2 149.25C238.623 149.62 238.141 150.12 237.794 150.711C237.446 151.302 237.243 151.966 237.2 152.65V154.65L240.92 156.77Z" fill="#455A64"/>
<path d="M259.35 163.15L237.81 150.72C237.459 151.304 237.263 151.969 237.24 152.65V369.46C237.216 370.13 237.374 370.795 237.699 371.382C238.024 371.969 238.503 372.456 239.084 372.791C239.665 373.127 240.326 373.297 240.997 373.284C241.668 373.272 242.322 373.077 242.89 372.72L259.35 363.21V163.15Z" fill="#263238"/>
<path d="M242.89 372.72L379 294.11C379.578 293.742 380.061 293.241 380.409 292.65C380.756 292.059 380.959 291.394 381 290.71V73.91C381 72.65 380.12 72.15 379 72.77L242.89 151.38C242.311 151.747 241.827 152.247 241.479 152.838C241.132 153.43 240.93 154.095 240.89 154.78V371.58C240.92 372.84 241.8 373.34 242.89 372.72Z" fill="#37474F"/>
<path d="M252.22 204.86L284.91 186C287.08 184.75 288.84 185.64 288.84 188C288.742 189.32 288.336 190.599 287.653 191.733C286.97 192.867 286.031 193.825 284.91 194.53L252.22 213.4C250.05 214.65 248.29 213.76 248.29 211.4C248.383 210.077 248.788 208.795 249.471 207.659C250.154 206.522 251.096 205.563 252.22 204.86Z" fill="#E0E0E0"/>
<path d="M249.87 239.36L254.1 236.92C254.96 236.42 255.67 236.83 255.67 237.83V242.71C255.639 243.256 255.481 243.787 255.209 244.261C254.936 244.735 254.557 245.139 254.1 245.44L249.87 247.88C249 248.38 248.3 247.97 248.3 246.97V242.09C248.328 241.543 248.485 241.011 248.758 240.537C249.031 240.062 249.412 239.659 249.87 239.36Z" fill="#6486DD"/>
<path d="M261.32 234.88L286.88 220.12C287.96 219.5 288.88 219.94 288.88 221.12C288.826 221.782 288.617 222.423 288.27 222.989C287.922 223.555 287.446 224.032 286.88 224.38L261.32 239.14C260.23 239.76 259.32 239.32 259.32 238.14C259.373 237.477 259.582 236.837 259.93 236.27C260.277 235.704 260.754 235.228 261.32 234.88Z" fill="#E0E0E0"/>
<path d="M249.87 256.39L254.1 254C254.96 253.5 255.67 253.9 255.67 254.91V259.79C255.639 260.335 255.481 260.864 255.209 261.337C254.936 261.809 254.556 262.211 254.1 262.51L249.87 264.95C249 265.45 248.3 265.05 248.3 264.05V259.16C248.321 258.606 248.475 258.066 248.748 257.584C249.021 257.102 249.406 256.692 249.87 256.39Z" fill="#6486DD"/>
<path d="M261.32 251.91L286.88 237.15C287.96 236.52 288.88 236.97 288.88 238.15C288.828 238.814 288.62 239.456 288.272 240.025C287.924 240.593 287.448 241.071 286.88 241.42L261.32 256.17C260.23 256.8 259.32 256.36 259.32 255.17C259.37 254.507 259.578 253.865 259.926 253.298C260.273 252.731 260.752 252.255 261.32 251.91Z" fill="#E0E0E0"/>
<path d="M249.87 273.42L254.1 271C254.96 270.5 255.67 270.91 255.67 271.91V276.79C255.641 277.336 255.483 277.868 255.211 278.342C254.938 278.816 254.558 279.22 254.1 279.52L249.87 281.96C249 282.46 248.3 282.05 248.3 281.05V276.17C248.324 275.62 248.479 275.083 248.752 274.605C249.025 274.127 249.409 273.72 249.87 273.42Z" fill="#6486DD"/>
<path d="M261.32 268.93L286.88 254.17C287.96 253.55 288.88 253.99 288.88 255.17C288.827 255.832 288.618 256.473 288.271 257.04C287.923 257.606 287.447 258.082 286.88 258.43L261.32 273.19C260.23 273.82 259.32 273.37 259.32 272.19C259.373 271.528 259.582 270.887 259.93 270.32C260.277 269.754 260.754 269.278 261.32 268.93Z" fill="#E0E0E0"/>
<path d="M249.87 290.49L254.1 288C254.96 287.5 255.67 287.91 255.67 288.91V293.8C255.639 294.344 255.481 294.874 255.209 295.347C254.936 295.819 254.556 296.221 254.1 296.52L249.87 299C249 299.5 248.3 299.09 248.3 298.09V293.21C248.329 292.665 248.486 292.134 248.759 291.662C249.032 291.189 249.413 290.787 249.87 290.49Z" fill="#6486DD"/>
<path d="M261.32 286L286.88 271.25C287.96 270.62 288.88 271.06 288.88 272.25C288.827 272.912 288.618 273.553 288.271 274.12C287.923 274.686 287.447 275.163 286.88 275.51L261.32 290.27C260.23 290.9 259.32 290.45 259.32 289.27C259.372 288.606 259.58 287.963 259.928 287.395C260.275 286.826 260.752 286.348 261.32 286Z" fill="#E0E0E0"/>
<path d="M250.26 326.08L268.45 315.58C269.53 314.96 270.45 315.4 270.45 316.58C270.396 317.242 270.187 317.883 269.84 318.449C269.492 319.015 269.016 319.492 268.45 319.84L250.26 330.34C249.18 330.97 248.26 330.52 248.26 329.34C248.314 328.678 248.523 328.037 248.871 327.471C249.218 326.905 249.694 326.428 250.26 326.08Z" fill="#E0E0E0"/>
<path d="M250.26 334.6L286.88 313.45C287.96 312.83 288.88 313.27 288.88 314.45C288.826 315.112 288.617 315.753 288.27 316.319C287.922 316.885 287.446 317.362 286.88 317.71L250.26 338.85C249.18 339.48 248.26 339.03 248.26 337.85C248.313 337.189 248.522 336.55 248.87 335.985C249.217 335.42 249.694 334.945 250.26 334.6Z" fill="#FAFAFA"/>
<path d="M250.26 334.6L275.82 319.84C276.91 319.21 277.82 319.66 277.82 320.84C277.769 321.504 277.561 322.147 277.213 322.715C276.865 323.284 276.388 323.761 275.82 324.11L250.26 338.86C249.18 339.49 248.26 339.04 248.26 337.86C248.312 337.197 248.52 336.556 248.868 335.989C249.215 335.422 249.693 334.946 250.26 334.6Z" fill="#6486DD"/>
<path d="M250.26 343.1L268.45 332.6C269.53 331.97 270.45 332.42 270.45 333.6C270.398 334.264 270.189 334.906 269.842 335.475C269.494 336.043 269.018 336.521 268.45 336.87L250.26 347.37C249.18 347.99 248.26 347.55 248.26 346.37C248.313 345.706 248.521 345.064 248.869 344.495C249.216 343.927 249.693 343.449 250.26 343.1Z" fill="#E0E0E0"/>
<path d="M250.26 309.07L268.45 298.57C269.53 297.94 270.45 298.39 270.45 299.57C270.399 300.233 270.191 300.874 269.843 301.441C269.495 302.008 269.018 302.484 268.45 302.83L250.26 313.33C249.18 313.96 248.26 313.52 248.26 312.33C248.312 311.667 248.52 311.026 248.868 310.459C249.215 309.892 249.693 309.416 250.26 309.07Z" fill="#E0E0E0"/>
<path d="M250.26 317.58L286.88 296.44C287.96 295.81 288.88 296.26 288.88 297.44C288.829 298.103 288.621 298.744 288.273 299.311C287.925 299.878 287.448 300.354 286.88 300.7L250.26 321.85C249.18 322.47 248.26 322.03 248.26 320.85C248.313 320.186 248.521 319.544 248.869 318.975C249.216 318.407 249.693 317.929 250.26 317.58Z" fill="#FAFAFA"/>
<path d="M250.26 317.58L263.26 310.08C264.34 309.46 265.26 309.9 265.26 311.08C265.206 311.742 264.997 312.383 264.65 312.949C264.302 313.515 263.826 313.992 263.26 314.34L250.26 321.84C249.18 322.46 248.26 322.02 248.26 320.84C248.314 320.178 248.523 319.537 248.871 318.971C249.218 318.405 249.694 317.928 250.26 317.58Z" fill="#6486DD"/>
<path d="M250.26 351.61L286.88 330.47C287.96 329.84 288.88 330.29 288.88 331.47C288.826 332.132 288.617 332.773 288.27 333.339C287.922 333.905 287.446 334.382 286.88 334.73L250.26 355.87C249.18 356.5 248.26 356.05 248.26 354.87C248.314 354.208 248.523 353.567 248.871 353.001C249.218 352.435 249.694 351.958 250.26 351.61Z" fill="#FAFAFA"/>
<path d="M250.26 351.61L283.19 332.61C284.28 331.98 285.19 332.43 285.19 333.61C285.139 334.274 284.931 334.917 284.583 335.485C284.235 336.054 283.758 336.532 283.19 336.88L250.26 355.88C249.18 356.51 248.26 356.06 248.26 354.88C248.313 354.216 248.521 353.574 248.869 353.005C249.216 352.437 249.693 351.959 250.26 351.61Z" fill="#6486DD"/>
<path d="M379 72.77L296.19 120.59V341.93L379 294.11C379.579 293.742 380.061 293.241 380.409 292.65C380.757 292.059 380.959 291.394 381 290.71V73.91C381 72.65 380.12 72.15 379 72.77Z" fill="#FAFAFA"/>
<path d="M296.22 129.1V146.13L288.84 154.64H296.21L296.22 171.67L373.63 126.97V84.41L296.22 129.1Z" fill="#6486DD"/>
<path d="M306.34 129.69L337.7 111.59C339.22 110.71 340.45 111.42 340.45 113.18C340.409 114.144 340.138 115.085 339.659 115.923C339.181 116.762 338.509 117.474 337.7 118L306.34 136.11C304.82 136.99 303.59 136.28 303.59 134.52C303.632 133.554 303.903 132.612 304.381 131.772C304.859 130.932 305.531 130.219 306.34 129.69Z" fill="#FAFAFA"/>
<path d="M304.57 143.43L365.27 108.43C365.82 108.11 366.27 108.34 366.27 108.92C366.245 109.253 366.142 109.575 365.968 109.86C365.794 110.145 365.555 110.385 365.27 110.56L304.57 145.56C304.03 145.87 303.57 145.65 303.57 145.06C303.598 144.729 303.703 144.409 303.877 144.126C304.051 143.843 304.288 143.605 304.57 143.43Z" fill="#FAFAFA"/>
<path d="M304.57 149.82L365.27 114.82C365.82 114.51 366.27 114.73 366.27 115.32C366.247 115.652 366.144 115.974 365.97 116.257C365.796 116.541 365.556 116.779 365.27 116.95L304.57 151.95C304.03 152.26 303.57 152.04 303.57 151.45C303.596 151.119 303.7 150.798 303.874 150.515C304.048 150.231 304.287 149.993 304.57 149.82Z" fill="#FAFAFA"/>
<path d="M304.57 156.2L365.27 121.2C365.82 120.88 366.27 121.11 366.27 121.69C366.247 122.022 366.144 122.344 365.97 122.627C365.796 122.911 365.556 123.149 365.27 123.32L304.57 158.37C304.03 158.68 303.57 158.46 303.57 157.87C303.592 157.532 303.694 157.205 303.868 156.914C304.042 156.624 304.283 156.379 304.57 156.2Z" fill="#FAFAFA"/>
<path d="M306.86 174.06L311.09 171.61C311.95 171.11 312.66 171.52 312.66 172.52V177.4C312.631 177.946 312.473 178.478 312.2 178.952C311.928 179.426 311.547 179.83 311.09 180.13L306.86 182.57C305.99 183.07 305.29 182.66 305.29 181.66V176.78C305.319 176.235 305.476 175.704 305.749 175.232C306.022 174.759 306.402 174.357 306.86 174.06Z" fill="#6486DD"/>
<path d="M318.31 169.57L343.87 154.81C344.96 154.19 345.87 154.63 345.87 155.81C345.819 156.473 345.61 157.114 345.263 157.681C344.915 158.248 344.438 158.724 343.87 159.07L318.31 173.83C317.22 174.45 316.31 174.01 316.31 172.83C316.363 172.167 316.572 171.527 316.92 170.96C317.267 170.394 317.744 169.918 318.31 169.57Z" fill="#455A64"/>
<path d="M306.27 189.3L370.66 152.12C371.2 151.81 371.66 152.03 371.66 152.62C371.634 152.951 371.53 153.272 371.356 153.555C371.182 153.839 370.944 154.077 370.66 154.25L306.27 191.43C305.73 191.74 305.27 191.52 305.27 190.93C305.298 190.599 305.403 190.279 305.577 189.996C305.75 189.713 305.988 189.475 306.27 189.3Z" fill="#455A64"/>
<path d="M306.27 195.69L370.66 158.51C371.2 158.19 371.66 158.41 371.66 159C371.634 159.331 371.53 159.652 371.356 159.935C371.182 160.219 370.944 160.457 370.66 160.63L306.27 197.81C305.73 198.13 305.27 197.91 305.27 197.32C305.296 196.989 305.4 196.668 305.574 196.385C305.748 196.101 305.986 195.863 306.27 195.69Z" fill="#455A64"/>
<path d="M306.27 202.07L370.66 164.89C371.2 164.58 371.66 164.8 371.66 165.39C371.632 165.721 371.527 166.04 371.353 166.324C371.18 166.607 370.942 166.845 370.66 167.02L306.27 204.2C305.73 204.51 305.27 204.29 305.27 203.7C305.296 203.369 305.4 203.048 305.574 202.765C305.748 202.481 305.986 202.243 306.27 202.07Z" fill="#455A64"/>
<path d="M306.27 208.47L370.66 171.29C371.2 170.98 371.66 171.2 371.66 171.79C371.634 172.121 371.53 172.442 371.356 172.725C371.182 173.009 370.944 173.247 370.66 173.42L306.27 210.6C305.73 210.92 305.27 210.69 305.27 210.11C305.297 209.777 305.401 209.456 305.575 209.171C305.748 208.886 305.987 208.646 306.27 208.47Z" fill="#455A64"/>
<path d="M306.86 220.88L311.09 218.44C311.95 217.94 312.66 218.34 312.66 219.34V224.23C312.629 224.775 312.471 225.304 312.198 225.777C311.926 226.249 311.546 226.651 311.09 226.95L306.86 229.39C305.99 229.89 305.29 229.49 305.29 228.48V223.6C305.319 223.055 305.476 222.524 305.749 222.052C306.022 221.579 306.402 221.177 306.86 220.88Z" fill="#6486DD"/>
<path d="M318.31 216.39L343.87 201.64C344.96 201.01 345.87 201.46 345.87 202.64C345.821 203.304 345.614 203.946 345.266 204.513C344.918 205.08 344.439 205.556 343.87 205.9L318.31 220.66C317.22 221.29 316.31 220.84 316.31 219.66C316.362 218.996 316.57 218.353 316.917 217.785C317.265 217.216 317.742 216.738 318.31 216.39Z" fill="#455A64"/>
<path d="M306.27 236.12L370.66 198.94C371.2 198.63 371.66 198.85 371.66 199.44C371.634 199.771 371.53 200.092 371.356 200.375C371.182 200.659 370.944 200.897 370.66 201.07L306.27 238.25C305.73 238.57 305.27 238.34 305.27 237.76C305.297 237.427 305.401 237.106 305.575 236.821C305.748 236.536 305.987 236.296 306.27 236.12Z" fill="#455A64"/>
<path d="M306.27 242.51L370.66 205.33C371.2 205.01 371.66 205.24 371.66 205.82C371.633 206.153 371.529 206.474 371.355 206.759C371.182 207.044 370.944 207.284 370.66 207.46L306.27 244.64C305.73 244.95 305.27 244.73 305.27 244.14C305.296 243.809 305.4 243.488 305.574 243.205C305.748 242.921 305.986 242.683 306.27 242.51Z" fill="#455A64"/>
<path d="M306.27 248.89L370.66 211.71C371.2 211.4 371.66 211.62 371.66 212.21C371.634 212.541 371.53 212.862 371.356 213.145C371.182 213.429 370.944 213.667 370.66 213.84L306.27 251C305.73 251.32 305.27 251.09 305.27 250.5C305.301 250.173 305.408 249.857 305.581 249.578C305.755 249.298 305.99 249.063 306.27 248.89Z" fill="#455A64"/>
<path d="M306.27 255.3L370.66 218.12C371.2 217.8 371.66 218.02 371.66 218.61C371.634 218.941 371.53 219.262 371.356 219.545C371.182 219.829 370.944 220.067 370.66 220.24L306.27 257.42C305.73 257.74 305.27 257.52 305.27 256.93C305.296 256.599 305.4 256.278 305.574 255.995C305.748 255.711 305.986 255.473 306.27 255.3Z" fill="#455A64"/>
<path d="M312.88 264.63L317.11 262.19C317.98 261.69 318.68 262.1 318.68 263.1V268C318.651 268.545 318.494 269.076 318.221 269.548C317.949 270.021 317.568 270.423 317.11 270.72L312.88 273.17C312.01 273.67 311.31 273.26 311.31 272.26V267.37C311.336 266.821 311.491 266.287 311.764 265.81C312.037 265.334 312.42 264.929 312.88 264.63Z" fill="#6486DD"/>
<path d="M306.27 281.22L323.72 271.15C324.26 270.83 324.72 271.06 324.72 271.64C324.694 271.971 324.59 272.292 324.416 272.575C324.242 272.859 324.004 273.097 323.72 273.27L306.27 283.35C305.73 283.66 305.27 283.44 305.27 282.85C305.296 282.519 305.4 282.198 305.574 281.915C305.748 281.631 305.986 281.393 306.27 281.22Z" fill="#455A64"/>
<path d="M336.35 251.07L340.58 248.63C341.45 248.13 342.15 248.53 342.15 249.54V254.42C342.122 254.965 341.965 255.496 341.692 255.968C341.419 256.441 341.038 256.843 340.58 257.14L336.35 259.58C335.48 260.09 334.78 259.68 334.78 258.68V253.79C334.809 253.245 334.966 252.714 335.239 252.242C335.512 251.769 335.893 251.367 336.35 251.07Z" fill="#6486DD"/>
<path d="M329.74 267.66L347.19 257.59C347.73 257.27 348.19 257.5 348.19 258.08C348.164 258.411 348.06 258.732 347.887 259.015C347.713 259.299 347.474 259.537 347.19 259.71L329.74 269.79C329.2 270.1 328.74 269.88 328.74 269.29C328.766 268.959 328.87 268.638 329.044 268.355C329.218 268.071 329.456 267.833 329.74 267.66Z" fill="#455A64"/>
<path d="M359.82 237.51L364.05 235.07C364.92 234.57 365.62 234.97 365.62 235.98V240.86C365.591 241.405 365.434 241.936 365.161 242.408C364.889 242.881 364.508 243.283 364.05 243.58L359.82 246C358.95 246.5 358.25 246.1 358.25 245.1V240.21C358.282 239.668 358.44 239.142 358.713 238.673C358.986 238.204 359.365 237.805 359.82 237.51Z" fill="#6486DD"/>
<path d="M353.21 254.1L370.66 244C371.2 243.68 371.66 243.9 371.66 244.49C371.634 244.821 371.53 245.142 371.356 245.425C371.182 245.709 370.944 245.947 370.66 246.12L353.21 256.2C352.67 256.51 352.21 256.29 352.21 255.7C352.24 255.374 352.347 255.059 352.52 254.781C352.694 254.504 352.93 254.27 353.21 254.1Z" fill="#455A64"/>
<path d="M306.27 285.38L323.72 275.3C324.26 274.99 324.72 275.21 324.72 275.8C324.694 276.131 324.59 276.452 324.416 276.735C324.242 277.019 324.004 277.257 323.72 277.43L306.27 287.5C305.73 287.82 305.27 287.6 305.27 287.01C305.296 286.679 305.4 286.358 305.574 286.075C305.748 285.791 305.986 285.553 306.27 285.38Z" fill="#455A64"/>
<path d="M329.74 271.82L347.19 261.74C347.73 261.43 348.19 261.65 348.19 262.24C348.164 262.571 348.06 262.892 347.887 263.175C347.713 263.459 347.474 263.697 347.19 263.87L329.74 273.94C329.2 274.26 328.74 274.03 328.74 273.45C328.766 273.119 328.87 272.798 329.044 272.515C329.218 272.231 329.456 271.993 329.74 271.82Z" fill="#455A64"/>
<path d="M353.21 258.25L370.66 248.18C371.2 247.87 371.66 248.09 371.66 248.68C371.634 249.011 371.53 249.332 371.356 249.615C371.182 249.899 370.944 250.137 370.66 250.31L353.21 260.38C352.67 260.7 352.21 260.47 352.21 259.89C352.237 259.557 352.341 259.236 352.515 258.951C352.688 258.666 352.926 258.426 353.21 258.25Z" fill="#455A64"/>
<path d="M306.27 289.53L323.72 279.46C324.26 279.15 324.72 279.37 324.72 279.96C324.692 280.291 324.587 280.611 324.413 280.894C324.24 281.177 324.002 281.415 323.72 281.59L306.27 291.66C305.73 291.97 305.27 291.75 305.27 291.16C305.298 290.829 305.403 290.509 305.577 290.226C305.75 289.943 305.988 289.705 306.27 289.53Z" fill="#455A64"/>
<path d="M329.74 276L347.19 265.93C347.73 265.62 348.19 265.84 348.19 266.43C348.162 266.761 348.057 267.081 347.883 267.364C347.71 267.647 347.472 267.885 347.19 268.06L329.74 278.1C329.2 278.41 328.74 278.19 328.74 277.6C328.772 277.274 328.879 276.96 329.052 276.683C329.226 276.405 329.461 276.171 329.74 276Z" fill="#455A64"/>
<path d="M353.21 262.41L370.66 252.34C371.2 252.02 371.66 252.25 371.66 252.83C371.633 253.163 371.529 253.484 371.355 253.769C371.182 254.054 370.943 254.294 370.66 254.47L353.21 264.54C352.67 264.85 352.21 264.63 352.21 264.04C352.236 263.709 352.34 263.388 352.514 263.105C352.688 262.821 352.926 262.583 353.21 262.41Z" fill="#455A64"/>
<path d="M312.88 299.59L317.11 297.14C317.98 296.64 318.68 297.05 318.68 298.05V302.94C318.651 303.485 318.494 304.016 318.221 304.488C317.949 304.961 317.568 305.363 317.11 305.66L312.88 308.1C312.01 308.6 311.31 308.19 311.31 307.19V302.31C311.339 301.765 311.496 301.234 311.769 300.762C312.042 300.289 312.422 299.887 312.88 299.59Z" fill="#6486DD"/>
<path d="M306.27 316.17L323.72 306.1C324.26 305.79 324.72 306.01 324.72 306.6C324.694 306.931 324.59 307.252 324.416 307.535C324.242 307.819 324.004 308.057 323.72 308.23L306.27 318.3C305.73 318.62 305.27 318.39 305.27 317.81C305.297 317.477 305.401 317.156 305.575 316.871C305.748 316.586 305.987 316.346 306.27 316.17Z" fill="#455A64"/>
<path d="M336.35 286L340.58 283.55C341.45 283.05 342.15 283.46 342.15 284.46V289.34C342.122 289.887 341.966 290.419 341.693 290.893C341.42 291.368 341.039 291.771 340.58 292.07L336.35 294.51C335.48 295.01 334.78 294.6 334.78 293.6V288.72C334.809 288.175 334.966 287.644 335.239 287.172C335.512 286.699 335.893 286.297 336.35 286Z" fill="#6486DD"/>
<path d="M329.74 302.61L347.19 292.54C347.73 292.23 348.19 292.45 348.19 293.04C348.163 293.371 348.058 293.691 347.884 293.974C347.711 294.257 347.473 294.496 347.19 294.67L329.74 304.74C329.2 305.05 328.74 304.83 328.74 304.24C328.768 303.909 328.873 303.589 329.047 303.306C329.221 303.023 329.458 302.785 329.74 302.61Z" fill="#455A64"/>
<path d="M359.82 272.46L364.05 270.02C364.92 269.52 365.62 269.93 365.62 270.93V275.81C365.591 276.356 365.434 276.888 365.161 277.363C364.889 277.837 364.508 278.24 364.05 278.54L359.82 281C358.95 281.5 358.25 281.09 358.25 280.09V275.21C358.276 274.66 358.431 274.124 358.704 273.646C358.977 273.168 359.359 272.762 359.82 272.46Z" fill="#6486DD"/>
<path d="M353.21 289.05L370.66 279C371.2 278.69 371.66 278.91 371.66 279.5C371.632 279.831 371.527 280.151 371.353 280.434C371.18 280.717 370.942 280.955 370.66 281.13L353.21 291.2C352.67 291.51 352.21 291.29 352.21 290.7C352.235 290.366 352.339 290.042 352.512 289.755C352.686 289.469 352.925 289.227 353.21 289.05Z" fill="#455A64"/>
<path d="M306.27 320.33L323.72 310.26C324.26 309.94 324.72 310.17 324.72 310.75C324.693 311.083 324.589 311.404 324.415 311.689C324.242 311.974 324.004 312.214 323.72 312.39L306.27 322.46C305.73 322.77 305.27 322.55 305.27 321.96C305.296 321.629 305.4 321.308 305.574 321.025C305.748 320.741 305.986 320.503 306.27 320.33Z" fill="#455A64"/>
<path d="M329.74 306.77L347.19 296.7C347.73 296.38 348.19 296.61 348.19 297.19C348.164 297.521 348.06 297.842 347.887 298.125C347.713 298.409 347.474 298.647 347.19 298.82L329.74 308.9C329.2 309.21 328.74 308.99 328.74 308.4C328.766 308.069 328.87 307.748 329.044 307.465C329.218 307.181 329.456 306.943 329.74 306.77Z" fill="#455A64"/>
<path d="M353.21 293.21L370.66 283.14C371.2 282.82 371.66 283.05 371.66 283.63C371.634 283.961 371.53 284.282 371.356 284.565C371.182 284.849 370.944 285.087 370.66 285.26L353.21 295.34C352.67 295.65 352.21 295.43 352.21 294.84C352.236 294.509 352.34 294.188 352.514 293.905C352.688 293.621 352.926 293.383 353.21 293.21Z" fill="#455A64"/>
<path d="M306.27 324.49L323.72 314.41C324.26 314.1 324.72 314.32 324.72 314.91C324.694 315.241 324.59 315.562 324.416 315.845C324.242 316.129 324.004 316.367 323.72 316.54L306.27 326.62C305.73 326.93 305.27 326.71 305.27 326.12C305.296 325.789 305.4 325.468 305.574 325.185C305.748 324.901 305.986 324.663 306.27 324.49Z" fill="#455A64"/>
<path d="M329.74 310.93L347.19 300.85C347.73 300.54 348.19 300.76 348.19 301.35C348.164 301.681 348.06 302.002 347.887 302.285C347.713 302.569 347.474 302.807 347.19 302.98L329.74 313.05C329.2 313.37 328.74 313.15 328.74 312.56C328.766 312.229 328.87 311.908 329.044 311.625C329.218 311.341 329.456 311.103 329.74 310.93Z" fill="#455A64"/>
<path d="M353.21 297.37L370.66 287.29C371.2 286.98 371.66 287.2 371.66 287.79C371.634 288.121 371.53 288.442 371.356 288.725C371.182 289.009 370.944 289.247 370.66 289.42L353.21 299.49C352.67 299.81 352.21 299.58 352.21 299C352.236 298.669 352.34 298.348 352.514 298.065C352.688 297.781 352.926 297.543 353.21 297.37Z" fill="#455A64"/>
<path d="M266.73 146.18C276.93 140.29 285.2 145.07 285.2 156.85C285.2 168.63 276.93 182.96 266.73 188.85C256.53 194.74 248.25 189.96 248.25 178.18C248.25 166.4 256.52 152.07 266.73 146.18Z" fill="#E0E0E0"/>
<path d="M266.73 155.46C270.04 153.54 272.73 155.09 272.73 158.92C272.617 161 272.015 163.024 270.972 164.828C269.93 166.632 268.476 168.164 266.73 169.3C263.42 171.21 260.73 169.66 260.73 165.84C260.843 163.76 261.445 161.736 262.488 159.932C263.53 158.128 264.984 156.596 266.73 155.46Z" fill="#FAFAFA"/>
<path d="M278.41 175.84C278.41 169.56 274 167.01 268.56 170.15L265.16 172.15C259.72 175.29 255.32 182.93 255.32 189.21V190.9C258.46 191.9 262.42 191.38 266.73 188.9C271.455 185.989 275.451 182.035 278.41 177.34V175.84Z" fill="#FAFAFA"/>
<path d="M255.79 219.19L281.35 204.43C282.43 203.81 283.35 204.25 283.35 205.43C283.296 206.092 283.087 206.733 282.74 207.299C282.392 207.865 281.916 208.342 281.35 208.69L255.79 223.45C254.7 224.07 253.79 223.63 253.79 222.45C253.843 221.787 254.052 221.147 254.4 220.58C254.747 220.014 255.224 219.537 255.79 219.19Z" fill="#E0E0E0"/>
</svg>
